<svg aria-roledescription="flowchart-v2" role="graphics-document document" viewBox="0 0 1841.1234130859375 1650.718017578125" style="max-width: 1841.1234130859375px;" class="flowchart" xmlns="http://www.w3.org/2000/svg" width="100%" id="mermaidSvgId"><style>#mermaidSvgId{font-family:"trebuchet ms",verdana,arial,sans-serif;font-size:16px;fill:#000000;}#mermaidSvgId .error-icon{fill:#552222;}#mermaidSvgId .error-text{fill:#552222;stroke:#552222;}#mermaidSvgId .edge-thickness-normal{stroke-width:1px;}#mermaidSvgId .edge-thickness-thick{stroke-width:3.5px;}#mermaidSvgId .edge-pattern-solid{stroke-dasharray:0;}#mermaidSvgId .edge-thickness-invisible{stroke-width:0;fill:none;}#mermaidSvgId .edge-pattern-dashed{stroke-dasharray:3;}#mermaidSvgId .edge-pattern-dotted{stroke-dasharray:2;}#mermaidSvgId .marker{fill:#666;stroke:#666;}#mermaidSvgId .marker.cross{stroke:#666;}#mermaidSvgId svg{font-family:"trebuchet ms",verdana,arial,sans-serif;font-size:16px;}#mermaidSvgId p{margin:0;}#mermaidSvgId .label{font-family:"trebuchet ms",verdana,arial,sans-serif;color:#000000;}#mermaidSvgId .cluster-label text{fill:#333;}#mermaidSvgId .cluster-label span{color:#333;}#mermaidSvgId .cluster-label span p{background-color:transparent;}#mermaidSvgId .label text,#mermaidSvgId span{fill:#000000;color:#000000;}#mermaidSvgId .node rect,#mermaidSvgId .node circle,#mermaidSvgId .node ellipse,#mermaidSvgId .node polygon,#mermaidSvgId .node path{fill:#eee;stroke:#999;stroke-width:1px;}#mermaidSvgId .rough-node .label text,#mermaidSvgId .node .label text,#mermaidSvgId .image-shape .label,#mermaidSvgId .icon-shape .label{text-anchor:middle;}#mermaidSvgId .node .katex path{fill:#000;stroke:#000;stroke-width:1px;}#mermaidSvgId .rough-node .label,#mermaidSvgId .node .label,#mermaidSvgId .image-shape .label,#mermaidSvgId .icon-shape .label{text-align:center;}#mermaidSvgId .node.clickable{cursor:pointer;}#mermaidSvgId .root .anchor path{fill:#666!important;stroke-width:0;stroke:#666;}#mermaidSvgId .arrowheadPath{fill:#333333;}#mermaidSvgId .edgePath .path{stroke:#666;stroke-width:2.0px;}#mermaidSvgId .flowchart-link{stroke:#666;fill:none;}#mermaidSvgId .edgeLabel{background-color:white;text-align:center;}#mermaidSvgId .edgeLabel p{background-color:white;}#mermaidSvgId .edgeLabel rect{opacity:0.5;background-color:white;fill:white;}#mermaidSvgId .labelBkg{background-color:rgba(255, 255, 255, 0.5);}#mermaidSvgId .cluster rect{fill:hsl(0, 0%, 98.9215686275%);stroke:#707070;stroke-width:1px;}#mermaidSvgId .cluster text{fill:#333;}#mermaidSvgId .cluster span{color:#333;}#mermaidSvgId div.mermaidTooltip{position:absolute;text-align:center;max-width:200px;padding:2px;font-family:"trebuchet ms",verdana,arial,sans-serif;font-size:12px;background:hsl(-160, 0%, 93.3333333333%);border:1px solid #707070;border-radius:2px;pointer-events:none;z-index:100;}#mermaidSvgId .flowchartTitleText{text-anchor:middle;font-size:18px;fill:#000000;}#mermaidSvgId rect.text{fill:none;stroke-width:0;}#mermaidSvgId .icon-shape,#mermaidSvgId .image-shape{background-color:white;text-align:center;}#mermaidSvgId .icon-shape p,#mermaidSvgId .image-shape p{background-color:white;padding:2px;}#mermaidSvgId .icon-shape rect,#mermaidSvgId .image-shape rect{opacity:0.5;background-color:white;fill:white;}#mermaidSvgId :root{--mermaid-font-family:"trebuchet ms",verdana,arial,sans-serif;}</style><g><marker orient="auto" markerHeight="8" markerWidth="8" markerUnits="userSpaceOnUse" refY="5" refX="5" viewBox="0 0 10 10" class="marker flowchart-v2" id="mermaidSvgId_flowchart-v2-pointEnd"><path style="stroke-width: 1; stroke-dasharray: 1, 0;" class="arrowMarkerPath" d="M 0 0 L 10 5 L 0 10 z"></path></marker><marker orient="auto" markerHeight="8" markerWidth="8" markerUnits="userSpaceOnUse" refY="5" refX="4.5" viewBox="0 0 10 10" class="marker flowchart-v2" id="mermaidSvgId_flowchart-v2-pointStart"><path style="stroke-width: 1; stroke-dasharray: 1, 0;" class="arrowMarkerPath" d="M 0 5 L 10 10 L 10 0 z"></path></marker><marker orient="auto" markerHeight="11" markerWidth="11" markerUnits="userSpaceOnUse" refY="5" refX="11" viewBox="0 0 10 10" class="marker flowchart-v2" id="mermaidSvgId_flowchart-v2-circleEnd"><circle style="stroke-width: 1; stroke-dasharray: 1, 0;" class="arrowMarkerPath" r="5" cy="5" cx="5"></circle></marker><marker orient="auto" markerHeight="11" markerWidth="11" markerUnits="userSpaceOnUse" refY="5" refX="-1" viewBox="0 0 10 10" class="marker flowchart-v2" id="mermaidSvgId_flowchart-v2-circleStart"><circle style="stroke-width: 1; stroke-dasharray: 1, 0;" class="arrowMarkerPath" r="5" cy="5" cx="5"></circle></marker><marker orient="auto" markerHeight="11" markerWidth="11" markerUnits="userSpaceOnUse" refY="5.2" refX="12" viewBox="0 0 11 11" class="marker cross flowchart-v2" id="mermaidSvgId_flowchart-v2-crossEnd"><path style="stroke-width: 2; stroke-dasharray: 1, 0;" class="arrowMarkerPath" d="M 1,1 l 9,9 M 10,1 l -9,9"></path></marker><marker orient="auto" markerHeight="11" markerWidth="11" markerUnits="userSpaceOnUse" refY="5.2" refX="-1" viewBox="0 0 11 11" class="marker cross flowchart-v2" id="mermaidSvgId_flowchart-v2-crossStart"><path style="stroke-width: 2; stroke-dasharray: 1, 0;" class="arrowMarkerPath" d="M 1,1 l 9,9 M 10,1 l -9,9"></path></marker><g class="root"><g class="clusters"><g data-look="classic" id="subGraph5" class="cluster"><rect height="145.59447479248047" width="481.21251678466797" y="8" x="1351.9109420776367" style=""></rect><g transform="translate(1536.9609489440918, 8)" class="cluster-label"><g><rect style="stroke: none" class="background"></rect><text style="" y="-10.1"><tspan dy="1.1em" y="-0.1em" x="0" class="text-outer-tspan"><tspan font-weight="normal" class="text-inner-tspan" font-style="normal">Ranking</tspan><tspan font-weight="normal" class="text-inner-tspan" font-style="normal"> System</tspan></tspan></text></g></g></g><g data-look="classic" id="subGraph4" class="cluster"><rect height="165.57020711898804" width="1554.6859512329102" y="173.59447479248047" x="8" style=""></rect><g transform="translate(716.7804756164551, 173.59447479248047)" class="cluster-label"><g><rect style="stroke: none" class="background"></rect><text style="" y="-10.1"><tspan dy="1.1em" y="-0.1em" x="0" class="text-outer-tspan"><tspan font-weight="normal" class="text-inner-tspan" font-style="normal">Submissions</tspan><tspan font-weight="normal" class="text-inner-tspan" font-style="normal"> &amp;amp;</tspan></tspan><tspan dy="1.1em" y="1em" x="0" class="text-outer-tspan"><tspan font-weight="normal" class="text-inner-tspan" font-style="normal">Evaluation</tspan></tspan></text></g></g></g><g data-look="classic" id="subGraph2" class="cluster"><rect height="169.24789714813232" width="555.228141784668" y="843.7878546714783" x="686.1577987670898" style=""></rect><g transform="translate(891.128116607666, 843.7878546714783)" class="cluster-label"><g><rect style="stroke: none" class="background"></rect><text style="" y="-10.1"><tspan dy="1.1em" y="-0.1em" x="0" class="text-outer-tspan"><tspan font-weight="normal" class="text-inner-tspan" font-style="normal">Contest</tspan><tspan font-weight="normal" class="text-inner-tspan" font-style="normal"> Registration</tspan></tspan></text></g></g></g><g data-look="classic" id="subGraph0" class="cluster"><rect height="267.6926636695862" width="1233.3859405517578" y="1375.0253691673279" x="8" style=""></rect><g transform="translate(560.9757804870605, 1375.0253691673279)" class="cluster-label"><g><rect style="stroke: none" class="background"></rect><text style="" y="-10.1"><tspan dy="1.1em" y="-0.1em" x="0" class="text-outer-tspan"><tspan font-weight="normal" class="text-inner-tspan" font-style="normal">User</tspan><tspan font-weight="normal" class="text-inner-tspan" font-style="normal"> Management</tspan></tspan></text></g></g></g></g><g class="edgePaths"><path marker-end="url(#mermaidSvgId_flowchart-v2-pointEnd)" style="" class="edge-thickness-normal edge-pattern-solid edge-thickness-normal edge-pattern-solid flowchart-link" id="L_user_registration_user_profiles_0" d="M392.829,1457.809L432.068,1456.278C471.307,1454.748,549.786,1451.687,598.674,1450.156C647.562,1448.625,666.86,1448.625,685.817,1456.196C704.774,1463.766,723.391,1478.908,732.699,1486.478L742.007,1494.049"></path><path marker-end="url(#mermaidSvgId_flowchart-v2-pointEnd)" style="" class="edge-thickness-normal edge-pattern-solid edge-thickness-normal edge-pattern-solid flowchart-link" id="L_user_profiles_user_credentials_1" d="M846.839,1509.054L864.233,1498.769C881.626,1488.484,916.413,1467.913,950.292,1457.628C984.171,1447.342,1017.143,1447.342,1033.628,1447.342L1050.114,1447.342"></path><path marker-end="url(#mermaidSvgId_flowchart-v2-pointEnd)" style="" class="edge-thickness-normal edge-pattern-solid edge-thickness-normal edge-pattern-solid flowchart-link" id="L_user_profiles_user_achievements_2" d="M846.839,1538.877L864.233,1544.155C881.626,1549.434,916.413,1559.99,948.857,1565.269C981.301,1570.547,1011.401,1570.547,1026.451,1570.547L1041.502,1570.547"></path><path marker-end="url(#mermaidSvgId_flowchart-v2-pointEnd)" style="" class="edge-thickness-normal edge-pattern-solid edge-thickness-normal edge-pattern-solid flowchart-link" id="L_user_registration_contest_participation_7" d="M392.829,1445.976L432.068,1439.351C471.307,1432.726,549.786,1419.476,598.674,1412.85C647.562,1406.225,666.86,1406.225,692.989,1331.763C719.118,1257.301,752.078,1108.376,768.558,1033.914L785.038,959.451"></path><path marker-end="url(#mermaidSvgId_flowchart-v2-pointEnd)" style="" class="edge-thickness-normal edge-pattern-solid edge-thickness-normal edge-pattern-solid flowchart-link" id="L_contest_participation_registration_timestamps_8" d="M877.52,928.75L889.8,930.409C902.08,932.069,926.64,935.388,950.634,937.048C974.628,938.708,998.055,938.708,1009.769,938.708L1021.483,938.708"></path><path marker-end="url(#mermaidSvgId_flowchart-v2-pointEnd)" style="" class="edge-thickness-normal edge-pattern-solid edge-thickness-normal edge-pattern-solid flowchart-link" id="L_user_submission_code_submission_11" d="M389.016,245.933L428.891,245.933C468.766,245.933,548.515,245.933,598.038,245.933C647.562,245.933,666.86,245.933,682.734,245.933C698.608,245.933,711.058,245.933,717.283,245.933L723.508,245.933"></path><path marker-end="url(#mermaidSvgId_flowchart-v2-pointEnd)" style="" class="edge-thickness-normal edge-pattern-solid edge-thickness-normal edge-pattern-solid flowchart-link" id="L_code_submission_evaluation_service_12" d="M861.17,245.933L876.175,245.933C891.18,245.933,921.19,245.933,947.808,245.933C974.427,245.933,997.653,245.933,1009.266,245.933L1020.88,245.933"></path><path marker-end="url(#mermaidSvgId_flowchart-v2-pointEnd)" style="" class="edge-thickness-normal edge-pattern-solid edge-thickness-normal edge-pattern-solid flowchart-link" id="L_evaluation_service_submission_results_13" d="M1216.386,262.744L1220.553,263.476C1224.719,264.207,1233.053,265.67,1246.43,266.402C1259.807,267.133,1278.228,267.133,1296.648,267.133C1315.069,267.133,1333.49,267.133,1347.263,267.133C1361.036,267.133,1370.161,267.133,1374.723,267.133L1379.286,267.133"></path><path marker-end="url(#mermaidSvgId_flowchart-v2-pointEnd)" style="" class="edge-thickness-normal edge-pattern-solid edge-thickness-normal edge-pattern-solid flowchart-link" id="L_evaluation_service_participant_rankings_14" d="M1216.386,229.123L1220.553,228.391C1224.719,227.66,1233.053,226.196,1246.43,225.465C1259.807,224.733,1278.228,224.733,1296.648,224.733C1315.069,224.733,1333.49,224.733,1355.261,207.44C1377.032,190.146,1402.153,155.559,1414.713,138.265L1427.273,120.971"></path><path marker-end="url(#mermaidSvgId_flowchart-v2-pointEnd)" style="" class="edge-thickness-normal edge-pattern-solid edge-thickness-normal edge-pattern-solid flowchart-link" id="L_participant_rankings_total_score_15" d="M1537.686,80.797L1541.853,80.797C1546.019,80.797,1554.353,80.797,1568.318,80.797C1582.284,80.797,1601.882,80.797,1623.533,80.797C1645.185,80.797,1668.891,80.797,1680.743,80.797L1692.596,80.797"></path><path marker-end="url(#mermaidSvgId_flowchart-v2-pointEnd)" style="" class="edge-thickness-normal edge-pattern-solid edge-thickness-normal edge-pattern-solid flowchart-link" id="L_user_registration_user_profiles_16" d="M362.635,1485.564L406.906,1503.142C451.178,1520.72,539.721,1555.877,593.641,1573.455C647.562,1591.033,666.86,1591.033,685.277,1583.717C703.694,1576.401,721.231,1561.769,729.999,1554.453L738.768,1547.137"></path><path marker-end="url(#mermaidSvgId_flowchart-v2-pointEnd)" style="" class="edge-thickness-normal edge-pattern-solid edge-thickness-normal edge-pattern-solid flowchart-link" id="L_contest_participation_submission_time_18" d="M877.52,906.073L889.8,904.385C902.08,902.696,926.64,899.32,964.845,823.266C1003.051,747.213,1054.901,598.482,1080.827,524.116L1106.752,449.751"></path><path marker-end="url(#mermaidSvgId_flowchart-v2-pointEnd)" style="" class="edge-thickness-normal edge-pattern-solid edge-thickness-normal edge-pattern-solid flowchart-link" id="L_submission_results_pass_fail_status_19" d="M1531.311,267.133L1536.54,267.133C1541.769,267.133,1552.228,267.133,1567.256,267.133C1582.284,267.133,1601.882,267.133,1620.813,267.133C1639.744,267.133,1658.009,267.133,1667.141,267.133L1676.273,267.133"></path></g><g class="edgeLabels"><g transform="translate(628.2640495300293, 1448.6253685951233)" class="edgeLabel"><g transform="translate(-23.418750762939453, -11.199999809265137)" class="label"><g><rect height="22.399999618530273" width="46.837501525878906" y="-1.199999988079071" x="-2" style="" class="background"></rect><text style="" y="-10.1"><tspan dy="1.1em" y="-0.1em" x="0" class="text-outer-tspan"><tspan font-weight="normal" class="text-inner-tspan" font-style="normal">stores</tspan></tspan></text></g></g></g><g transform="translate(951.1999931335449, 1447.3423881530762)" class="edgeLabel"><g transform="translate(-31.893749237060547, -11.199999809265137)" class="label"><g><rect height="22.399999618530273" width="63.78750228881836" y="-1.199999988079071" x="-2" style="" class="background"></rect><text style="" y="-10.1"><tspan dy="1.1em" y="-0.1em" x="0" class="text-outer-tspan"><tspan font-weight="normal" class="text-inner-tspan" font-style="normal">contains</tspan></tspan></text></g></g></g><g transform="translate(951.1999931335449, 1570.5472297668457)" class="edgeLabel"><g transform="translate(-31.893749237060547, -11.199999809265137)" class="label"><g><rect height="22.399999618530273" width="63.78750228881836" y="-1.199999988079071" x="-2" style="" class="background"></rect><text style="" y="-10.1"><tspan dy="1.1em" y="-0.1em" x="0" class="text-outer-tspan"><tspan font-weight="normal" class="text-inner-tspan" font-style="normal">contains</tspan></tspan></text></g></g></g><g transform="translate(628.2640495300293, 1406.225368976593)" class="edgeLabel"><g transform="translate(-32.89374923706055, -11.199999809265137)" class="label"><g><rect height="22.399999618530273" width="65.78750228881836" y="-1.199999988079071" x="-2" style="" class="background"></rect><text style="" y="-10.1"><tspan dy="1.1em" y="-0.1em" x="0" class="text-outer-tspan"><tspan font-weight="normal" class="text-inner-tspan" font-style="normal">registers</tspan></tspan></text></g></g></g><g transform="translate(951.1999931335449, 938.7077527046204)" class="edgeLabel"><g transform="translate(-23.71875, -11.199999809265137)" class="label"><g><rect height="22.399999618530273" width="47.4375" y="-1.199999988079071" x="-2" style="" class="background"></rect><text style="" y="-10.1"><tspan dy="1.1em" y="-0.1em" x="0" class="text-outer-tspan"><tspan font-weight="normal" class="text-inner-tspan" font-style="normal">tracks</tspan></tspan></text></g></g></g><g transform="translate(628.2640495300293, 245.9334397315979)" class="edgeLabel"><g transform="translate(-29.399999618530273, -11.199999809265137)" class="label"><g><rect height="22.399999618530273" width="58.79999923706055" y="-1.199999988079071" x="-2" style="" class="background"></rect><text style="" y="-10.1"><tspan dy="1.1em" y="-0.1em" x="0" class="text-outer-tspan"><tspan font-weight="normal" class="text-inner-tspan" font-style="normal">submits</tspan></tspan></text></g></g></g><g transform="translate(951.1999931335449, 245.9334397315979)" class="edgeLabel"><g transform="translate(-48.679691314697266, -11.199999809265137)" class="label"><g><rect height="22.399999618530273" width="97.35938262939453" y="-1.199999988079071" x="-2" style="" class="background"></rect><text style="" y="-10.1"><tspan dy="1.1em" y="-0.1em" x="0" class="text-outer-tspan"><tspan font-weight="normal" class="text-inner-tspan" font-style="normal">evaluated</tspan><tspan font-weight="normal" class="text-inner-tspan" font-style="normal"> by</tspan></tspan></text></g></g></g><g transform="translate(1296.6484413146973, 267.13343954086304)" class="edgeLabel"><g transform="translate(-23.418750762939453, -11.199999809265137)" class="label"><g><rect height="22.399999618530273" width="46.837501525878906" y="-1.199999988079071" x="-2" style="" class="background"></rect><text style="" y="-10.1"><tspan dy="1.1em" y="-0.1em" x="0" class="text-outer-tspan"><tspan font-weight="normal" class="text-inner-tspan" font-style="normal">stores</tspan></tspan></text></g></g></g><g transform="translate(1296.6484413146973, 224.73343992233276)" class="edgeLabel"><g transform="translate(-30.262500762939453, -11.199999809265137)" class="label"><g><rect height="22.399999618530273" width="60.525001525878906" y="-1.199999988079071" x="-2" style="" class="background"></rect><text style="" y="-10.1"><tspan dy="1.1em" y="-0.1em" x="0" class="text-outer-tspan"><tspan font-weight="normal" class="text-inner-tspan" font-style="normal">updates</tspan></tspan></text></g></g></g><g transform="translate(1621.4797019958496, 80.79723739624023)" class="edgeLabel"><g transform="translate(-33.79375076293945, -11.199999809265137)" class="label"><g><rect height="22.399999618530273" width="67.5875015258789" y="-1.199999988079071" x="-2" style="" class="background"></rect><text style="" y="-10.1"><tspan dy="1.1em" y="-0.1em" x="0" class="text-outer-tspan"><tspan font-weight="normal" class="text-inner-tspan" font-style="normal">based</tspan><tspan font-weight="normal" class="text-inner-tspan" font-style="normal"> on</tspan></tspan></text></g></g></g><g transform="translate(628.2640495300293, 1591.0326313972473)" class="edgeLabel"><g transform="translate(-30.393749237060547, -11.199999809265137)" class="label"><g><rect height="22.399999618530273" width="60.787498474121094" y="-1.199999988079071" x="-2" style="" class="background"></rect><text style="" y="-10.1"><tspan dy="1.1em" y="-0.1em" x="0" class="text-outer-tspan"><tspan font-weight="normal" class="text-inner-tspan" font-style="normal">signs</tspan><tspan font-weight="normal" class="text-inner-tspan" font-style="normal"> up</tspan></tspan></text></g></g></g><g transform="translate(951.1999931335449, 895.9437532424927)" class="edgeLabel"><g transform="translate(-28.53125, -11.199999809265137)" class="label"><g><rect height="22.399999618530273" width="57.0625" y="-1.199999988079071" x="-2" style="" class="background"></rect><text style="" y="-10.1"><tspan dy="1.1em" y="-0.1em" x="0" class="text-outer-tspan"><tspan font-weight="normal" class="text-inner-tspan" font-style="normal">records</tspan></tspan></text></g></g></g><g transform="translate(1621.4797019958496, 267.13343954086304)" class="edgeLabel"><g transform="translate(-31.40625, -11.199999809265137)" class="label"><g><rect height="22.399999618530273" width="62.8125" y="-1.199999988079071" x="-2" style="" class="background"></rect><text style="" y="-10.1"><tspan dy="1.1em" y="-0.1em" x="0" class="text-outer-tspan"><tspan font-weight="normal" class="text-inner-tspan" font-style="normal">includes</tspan></tspan></text></g></g></g></g><g class="nodes"><g transform="translate(166.37890625, 366.1646819114685)" class="root"><g class="clusters"><g data-look="classic" id="subGraph3" class="cluster"><rect height="454.091007232666" width="254.6125030517578" y="8" x="8" style=""></rect><g transform="translate(58.17656707763672, 8)" class="cluster-label"><g><rect style="stroke: none" class="background"></rect><text style="" y="-10.1"><tspan dy="1.1em" y="-0.1em" x="0" class="text-outer-tspan"><tspan font-weight="normal" class="text-inner-tspan" font-style="normal">Problem</tspan><tspan font-weight="normal" class="text-inner-tspan" font-style="normal"> Management</tspan></tspan></text></g></g></g></g><g class="edgePaths"><path marker-end="url(#mermaidSvgId_flowchart-v2-pointEnd)" style="" class="edge-thickness-normal edge-pattern-solid edge-thickness-normal edge-pattern-solid flowchart-link" id="L_problem_creation_problem_details_9" d="M135.306,93.9L135.306,102.017C135.306,110.133,135.306,126.367,135.306,141.933C135.306,157.5,135.306,172.4,135.306,179.85L135.306,187.3"></path><path marker-end="url(#mermaidSvgId_flowchart-v2-pointEnd)" style="" class="edge-thickness-normal edge-pattern-solid edge-thickness-normal edge-pattern-solid flowchart-link" id="L_problem_details_test_cases_10" d="M135.306,262.571L135.306,270.688C135.306,278.805,135.306,295.038,135.306,310.605C135.306,326.171,135.306,341.071,135.306,348.521L135.306,355.971"></path></g><g class="edgeLabels"><g transform="translate(135.3062515258789, 142.60000133514404)" class="edgeLabel"><g transform="translate(-28.03125, -11.199999809265137)" class="label"><g><rect height="22.399999618530273" width="56.0625" y="-1.199999988079071" x="-2" style="" class="background"></rect><text style="" y="-10.1"><tspan dy="1.1em" y="-0.1em" x="0" class="text-outer-tspan"><tspan font-weight="normal" class="text-inner-tspan" font-style="normal">defines</tspan></tspan></text></g></g></g><g transform="translate(135.3062515258789, 311.2712869644165)" class="edgeLabel"><g transform="translate(-31.40625, -11.199999809265137)" class="label"><g><rect height="22.399999618530273" width="62.8125" y="-1.199999988079071" x="-2" style="" class="background"></rect><text style="" y="-10.1"><tspan dy="1.1em" y="-0.1em" x="0" class="text-outer-tspan"><tspan font-weight="normal" class="text-inner-tspan" font-style="normal">includes</tspan></tspan></text></g></g></g></g><g class="nodes"><g transform="translate(135.3062515258789, 69.70000076293945)" id="flowchart-problem_creation-3586" class="node default"><rect height="48.39999961853027" width="184.6125030517578" y="-24.199999809265137" x="-92.3062515258789" style="" class="basic label-container"></rect><g transform="translate(0, -9.199999809265137)" style="" class="label"><rect></rect><g><rect style="stroke: none" class="background"></rect><text style="" y="-10.1"><tspan dy="1.1em" y="-0.1em" x="0" class="text-outer-tspan"><tspan font-weight="normal" class="text-inner-tspan" font-style="normal">Problem</tspan><tspan font-weight="normal" class="text-inner-tspan" font-style="normal"> Creation</tspan></tspan></text></g></g></g><g transform="translate(135.3062515258789, 226.93564414978027)" id="flowchart-problem_details-3587" class="node default"><path transform="translate(-63.75, -35.63564337362157)" style="" class="basic label-container" d="M0,12.623762376237623 a63.75,12.623762376237623 0,0,0 127.5,0 a63.75,12.623762376237623 0,0,0 -127.5,0 l0,46.023761994767895 a63.75,12.623762376237623 0,0,0 127.5,0 l0,-46.023761994767895"></path><g transform="translate(0, 1.7881393432617188e-7)" style="" class="label"><rect></rect><g><rect style="stroke: none" class="background"></rect><text style="" y="-10.1"><tspan dy="1.1em" y="-0.1em" x="0" class="text-outer-tspan"><tspan font-weight="normal" class="text-inner-tspan" font-style="normal">Problem</tspan><tspan font-weight="normal" class="text-inner-tspan" font-style="normal"> Details</tspan></tspan></text></g></g></g><g transform="translate(135.3062515258789, 392.2811470031738)" id="flowchart-test_cases-3589" class="node default"><path transform="translate(-44.56875228881836, -32.30985959657521)" style="" class="basic label-container" d="M0,10.406573191540046 a44.56875228881836,10.406573191540046 0,0,0 89.13750457763672,0 a44.56875228881836,10.406573191540046 0,0,0 -89.13750457763672,0 l0,43.80657281007032 a44.56875228881836,10.406573191540046 0,0,0 89.13750457763672,0 l0,-43.80657281007032"></path><g transform="translate(0.3999977111816406, 1.7881393432617188e-7)" style="" class="label"><rect></rect><g><rect style="stroke: none" class="background"></rect><text style="" y="-10.1"><tspan dy="1.1em" y="-0.1em" x="0" class="text-outer-tspan"><tspan font-weight="normal" class="text-inner-tspan" font-style="normal">Test</tspan><tspan font-weight="normal" class="text-inner-tspan" font-style="normal"> Cases</tspan></tspan></text></g></g></g></g></g><g transform="translate(25, 870.2556853294373)" class="root"><g class="clusters"><g data-look="classic" id="subGraph1" class="cluster"><rect height="461.7696876525879" width="537.3703231811523" y="8" x="8" style=""></rect><g transform="translate(201.46797561645508, 8)" class="cluster-label"><g><rect style="stroke: none" class="background"></rect><text style="" y="-10.1"><tspan dy="1.1em" y="-0.1em" x="0" class="text-outer-tspan"><tspan font-weight="normal" class="text-inner-tspan" font-style="normal">Contest</tspan><tspan font-weight="normal" class="text-inner-tspan" font-style="normal"> Management</tspan></tspan></text></g></g></g></g><g class="edgePaths"><path marker-end="url(#mermaidSvgId_flowchart-v2-pointEnd)" style="" class="edge-thickness-normal edge-pattern-solid edge-thickness-normal edge-pattern-solid flowchart-link" id="L_contest_creation_contest_details_3" d="M207.352,93.9L188.579,102.017C169.806,110.133,132.259,126.367,130.714,145.077C129.168,163.788,163.624,184.976,180.852,195.57L198.08,206.163"></path><path marker-end="url(#mermaidSvgId_flowchart-v2-pointEnd)" style="" class="edge-thickness-normal edge-pattern-solid edge-thickness-normal edge-pattern-solid flowchart-link" id="L_contest_details_contest_rules_4" d="M201.488,245.859L184.418,256.666C167.348,267.473,133.208,289.086,116.139,307.677C99.069,326.267,99.069,341.835,99.069,349.618L99.069,357.402"></path><path marker-end="url(#mermaidSvgId_flowchart-v2-pointEnd)" style="" class="edge-thickness-normal edge-pattern-solid edge-thickness-normal edge-pattern-solid flowchart-link" id="L_contest_details_contest_prizes_5" d="M263.325,262L263.325,270.117C263.325,278.234,263.325,294.467,263.325,310.309C263.325,326.152,263.325,341.603,263.325,349.329L263.325,357.055"></path><path marker-end="url(#mermaidSvgId_flowchart-v2-pointEnd)" style="" class="edge-thickness-normal edge-pattern-solid edge-thickness-normal edge-pattern-solid flowchart-link" id="L_contest_details_organizing_entity_6" d="M325.163,243.479L344.459,254.682C363.755,265.886,402.348,288.293,421.645,306.947C440.941,325.6,440.941,340.5,440.941,347.95L440.941,355.4"></path><path marker-end="url(#mermaidSvgId_flowchart-v2-pointEnd)" style="" class="edge-thickness-normal edge-pattern-solid edge-thickness-normal edge-pattern-solid flowchart-link" id="L_contest_creation_contest_details_17" d="M328.105,93.9L349.832,102.017C371.559,110.133,415.013,126.367,415.113,145.815C415.213,165.264,371.959,187.929,350.333,199.261L328.706,210.593"></path></g><g class="edgeLabels"><g transform="translate(94.7125015258789, 142.60000133514404)" class="edgeLabel"><g transform="translate(-28.03125, -11.199999809265137)" class="label"><g><rect height="22.399999618530273" width="56.0625" y="-1.199999988079071" x="-2" style="" class="background"></rect><text style="" y="-10.1"><tspan dy="1.1em" y="-0.1em" x="0" class="text-outer-tspan"><tspan font-weight="normal" class="text-inner-tspan" font-style="normal">defines</tspan></tspan></text></g></g></g><g transform="translate(99.06875228881836, 310.7001886367798)" class="edgeLabel"><g transform="translate(-31.40625, -11.199999809265137)" class="label"><g><rect height="22.399999618530273" width="62.8125" y="-1.199999988079071" x="-2" style="" class="background"></rect><text style="" y="-10.1"><tspan dy="1.1em" y="-0.1em" x="0" class="text-outer-tspan"><tspan font-weight="normal" class="text-inner-tspan" font-style="normal">includes</tspan></tspan></text></g></g></g><g transform="translate(263.3250045776367, 310.7001886367798)" class="edgeLabel"><g transform="translate(-31.40625, -11.199999809265137)" class="label"><g><rect height="22.399999618530273" width="62.8125" y="-1.199999988079071" x="-2" style="" class="background"></rect><text style="" y="-10.1"><tspan dy="1.1em" y="-0.1em" x="0" class="text-outer-tspan"><tspan font-weight="normal" class="text-inner-tspan" font-style="normal">includes</tspan></tspan></text></g></g></g><g transform="translate(440.94141387939453, 310.7001886367798)" class="edgeLabel"><g transform="translate(-33.85078048706055, -11.199999809265137)" class="label"><g><rect height="22.399999618530273" width="67.7015609741211" y="-1.199999988079071" x="-2" style="" class="background"></rect><text style="" y="-10.1"><tspan dy="1.1em" y="-0.1em" x="0" class="text-outer-tspan"><tspan font-weight="normal" class="text-inner-tspan" font-style="normal">linked</tspan><tspan font-weight="normal" class="text-inner-tspan" font-style="normal"> to</tspan></tspan></text></g></g></g><g transform="translate(458.4671964645386, 142.60000133514404)" class="edgeLabel"><g transform="translate(-28.412500381469727, -11.199999809265137)" class="label"><g><rect height="22.399999618530273" width="56.82500076293945" y="-1.199999988079071" x="-2" style="" class="background"></rect><text style="" y="-10.1"><tspan dy="1.1em" y="-0.1em" x="0" class="text-outer-tspan"><tspan font-weight="normal" class="text-inner-tspan" font-style="normal">creates</tspan></tspan></text></g></g></g></g><g class="nodes"><g transform="translate(263.3250045776367, 69.70000076293945)" id="flowchart-contest_creation-3574" class="node default"><rect height="48.39999961853027" width="180.78750610351562" y="-24.199999809265137" x="-90.39375305175781" style="" class="basic label-container"></rect><g transform="translate(0, -9.199999809265137)" style="" class="label"><rect></rect><g><rect style="stroke: none" class="background"></rect><text style="" y="-10.1"><tspan dy="1.1em" y="-0.1em" x="0" class="text-outer-tspan"><tspan font-weight="normal" class="text-inner-tspan" font-style="normal">Contest</tspan><tspan font-weight="normal" class="text-inner-tspan" font-style="normal"> Creation</tspan></tspan></text></g></g></g><g transform="translate(263.3250045776367, 226.6500949859619)" id="flowchart-contest_details-3575" class="node default"><path transform="translate(-61.837501525878906, -35.35009554677531)" style="" class="basic label-container" d="M0,12.433397158340117 a61.837501525878906,12.433397158340117 0,0,0 123.67500305175781,0 a61.837501525878906,12.433397158340117 0,0,0 -123.67500305175781,0 l0,45.83339677687039 a61.837501525878906,12.433397158340117 0,0,0 123.67500305175781,0 l0,-45.83339677687039"></path><g transform="translate(0, 1.7881393432617188e-7)" style="" class="label"><rect></rect><g><rect style="stroke: none" class="background"></rect><text style="" y="-10.1"><tspan dy="1.1em" y="-0.1em" x="0" class="text-outer-tspan"><tspan font-weight="normal" class="text-inner-tspan" font-style="normal">Contest</tspan><tspan font-weight="normal" class="text-inner-tspan" font-style="normal"> Details</tspan></tspan></text></g></g></g><g transform="translate(99.06875228881836, 395.8349380493164)" id="flowchart-contest_rules-3577" class="node default"><path transform="translate(-56.06875228881836, -34.43298738181778)" style="" class="basic label-container" d="M0,11.821991715035095 a56.06875228881836,11.821991715035095 0,0,0 112.13750457763672,0 a56.06875228881836,11.821991715035095 0,0,0 -112.13750457763672,0 l0,45.22199133356537 a56.06875228881836,11.821991715035095 0,0,0 112.13750457763672,0 l0,-45.22199133356537"></path><g transform="translate(0, 1.7881393432617188e-7)" style="" class="label"><rect></rect><g><rect style="stroke: none" class="background"></rect><text style="" y="-10.1"><tspan dy="1.1em" y="-0.1em" x="0" class="text-outer-tspan"><tspan font-weight="normal" class="text-inner-tspan" font-style="normal">Contest</tspan><tspan font-weight="normal" class="text-inner-tspan" font-style="normal"> Rules</tspan></tspan></text></g></g></g><g transform="translate(263.3250045776367, 395.8349380493164)" id="flowchart-contest_prizes-3579" class="node default"><path transform="translate(-58.1875, -34.780010166592945)" style="" class="basic label-container" d="M0,12.053340238218539 a58.1875,12.053340238218539 0,0,0 116.375,0 a58.1875,12.053340238218539 0,0,0 -116.375,0 l0,45.45333985674881 a58.1875,12.053340238218539 0,0,0 116.375,0 l0,-45.45333985674881"></path><g transform="translate(0, 1.7881393432617188e-7)" style="" class="label"><rect></rect><g><rect style="stroke: none" class="background"></rect><text style="" y="-10.1"><tspan dy="1.1em" y="-0.1em" x="0" class="text-outer-tspan"><tspan font-weight="normal" class="text-inner-tspan" font-style="normal">Contest</tspan><tspan font-weight="normal" class="text-inner-tspan" font-style="normal"> Prizes</tspan></tspan></text></g></g></g><g transform="translate(440.94141387939453, 395.8349380493164)" id="flowchart-organizing_entity-3581" class="node default"><path transform="translate(-69.42890930175781, -36.434750233531915)" style="" class="basic label-container" d="M0,13.156500282844519 a69.42890930175781,13.156500282844519 0,0,0 138.85781860351562,0 a69.42890930175781,13.156500282844519 0,0,0 -138.85781860351562,0 l0,46.55649990137479 a69.42890930175781,13.156500282844519 0,0,0 138.85781860351562,0 l0,-46.55649990137479"></path><g transform="translate(-0.4539070129394531, 1.7881393432617188e-7)" style="" class="label"><rect></rect><g><rect style="stroke: none" class="background"></rect><text style="" y="-10.1"><tspan dy="1.1em" y="-0.1em" x="0" class="text-outer-tspan"><tspan font-weight="normal" class="text-inner-tspan" font-style="normal">Organizing</tspan><tspan font-weight="normal" class="text-inner-tspan" font-style="normal"> Entity</tspan></tspan></text></g></g></g></g></g><g transform="translate(301.6851501464844, 1461.3643345832825)" id="flowchart-user_registration-3568" class="node default"><rect height="48.39999961853027" width="182.28750610351562" y="-24.199999809265137" x="-91.14375305175781" style="" class="basic label-container"></rect><g transform="translate(0, -9.199999809265137)" style="" class="label"><rect></rect><g><rect style="stroke: none" class="background"></rect><text style="" y="-10.1"><tspan dy="1.1em" y="-0.1em" x="0" class="text-outer-tspan"><tspan font-weight="normal" class="text-inner-tspan" font-style="normal">User</tspan><tspan font-weight="normal" class="text-inner-tspan" font-style="normal"> Registration</tspan></tspan></text></g></g></g><g transform="translate(794.3390502929688, 1522.944809436798)" id="flowchart-user_profiles-3569" class="node default"><path transform="translate(-52.5, -33.81956502665645)" style="" class="basic label-container" d="M0,11.413043478260871 a52.5,11.413043478260871 0,0,0 105,0 a52.5,11.413043478260871 0,0,0 -105,0 l0,44.81304309679115 a52.5,11.413043478260871 0,0,0 105,0 l0,-44.81304309679115"></path><g transform="translate(0, 1.7881393432617188e-7)" style="" class="label"><rect></rect><g><rect style="stroke: none" class="background"></rect><text style="" y="-10.1"><tspan dy="1.1em" y="-0.1em" x="0" class="text-outer-tspan"><tspan font-weight="normal" class="text-inner-tspan" font-style="normal">User</tspan><tspan font-weight="normal" class="text-inner-tspan" font-style="normal"> Profiles</tspan></tspan></text></g></g></g><g transform="translate(1120.6328125, 1447.3423881530762)" id="flowchart-user_credentials-3571" class="node default"><path transform="translate(-66.51875305175781, -36.034035989573205)" style="" class="basic label-container" d="M0,12.889357453538713 a66.51875305175781,12.889357453538713 0,0,0 133.03750610351562,0 a66.51875305175781,12.889357453538713 0,0,0 -133.03750610351562,0 l0,46.28935707206899 a66.51875305175781,12.889357453538713 0,0,0 133.03750610351562,0 l0,-46.28935707206899"></path><g transform="translate(-0.000003814697265625, 1.7881393432617188e-7)" style="" class="label"><rect></rect><g><rect style="stroke: none" class="background"></rect><text style="" y="-10.1"><tspan dy="1.1em" y="-0.1em" x="0" class="text-outer-tspan"><tspan font-weight="normal" class="text-inner-tspan" font-style="normal">User</tspan><tspan font-weight="normal" class="text-inner-tspan" font-style="normal"> Credentials</tspan></tspan></text></g></g></g><g transform="translate(1120.6328125, 1570.5472297668457)" id="flowchart-user_achievements-3573" class="node default"><path transform="translate(-75.13125610351562, -37.170801163884676)" style="" class="basic label-container" d="M0,13.647200903079693 a75.13125610351562,13.647200903079693 0,0,0 150.26251220703125,0 a75.13125610351562,13.647200903079693 0,0,0 -150.26251220703125,0 l0,47.047200521609966 a75.13125610351562,13.647200903079693 0,0,0 150.26251220703125,0 l0,-47.047200521609966"></path><g transform="translate(-0.00000762939453125, 1.7881393432617188e-7)" style="" class="label"><rect></rect><g><rect style="stroke: none" class="background"></rect><text style="" y="-10.1"><tspan dy="1.1em" y="-0.1em" x="0" class="text-outer-tspan"><tspan font-weight="normal" class="text-inner-tspan" font-style="normal">User</tspan><tspan font-weight="normal" class="text-inner-tspan" font-style="normal"> Achievements</tspan></tspan></text></g></g></g><g transform="translate(794.3390502929688, 917.5077528953552)" id="flowchart-contest_participation-3583" class="node default"><path transform="translate(-83.1812515258789, -38.11179370551915)" style="" class="basic label-container" d="M0,14.274529264169338 a83.1812515258789,14.274529264169338 0,0,0 166.3625030517578,0 a83.1812515258789,14.274529264169338 0,0,0 -166.3625030517578,0 l0,47.67452888269961 a83.1812515258789,14.274529264169338 0,0,0 166.3625030517578,0 l0,-47.67452888269961"></path><g transform="translate(0, 1.7881393432617188e-7)" style="" class="label"><rect></rect><g><rect style="stroke: none" class="background"></rect><text style="" y="-10.1"><tspan dy="1.1em" y="-0.1em" x="0" class="text-outer-tspan"><tspan font-weight="normal" class="text-inner-tspan" font-style="normal">Contest</tspan><tspan font-weight="normal" class="text-inner-tspan" font-style="normal"> Participation</tspan></tspan></text></g></g></g><g transform="translate(1120.6328125, 938.7077527046204)" id="flowchart-registration_timestamps-3585" class="node default"><path transform="translate(-95.1500015258789, -39.33320642318792)" style="" class="basic label-container" d="M0,15.088804409281853 a95.1500015258789,15.088804409281853 0,0,0 190.3000030517578,0 a95.1500015258789,15.088804409281853 0,0,0 -190.3000030517578,0 l0,48.48880402781212 a95.1500015258789,15.088804409281853 0,0,0 190.3000030517578,0 l0,-48.48880402781212"></path><g transform="translate(0, 1.7881393432617188e-7)" style="" class="label"><rect></rect><g><rect style="stroke: none" class="background"></rect><text style="" y="-10.1"><tspan dy="1.1em" y="-0.1em" x="0" class="text-outer-tspan"><tspan font-weight="normal" class="text-inner-tspan" font-style="normal">Registration</tspan><tspan font-weight="normal" class="text-inner-tspan" font-style="normal"> Timestamps</tspan></tspan></text></g></g></g><g transform="translate(301.6851501464844, 245.9334397315979)" id="flowchart-user_submission-3590" class="node default"><rect height="48.39999961853027" width="174.66250610351562" y="-24.199999809265137" x="-87.33125305175781" style="" class="basic label-container"></rect><g transform="translate(0, -9.199999809265137)" style="" class="label"><rect></rect><g><rect style="stroke: none" class="background"></rect><text style="" y="-10.1"><tspan dy="1.1em" y="-0.1em" x="0" class="text-outer-tspan"><tspan font-weight="normal" class="text-inner-tspan" font-style="normal">User</tspan><tspan font-weight="normal" class="text-inner-tspan" font-style="normal"> Submission</tspan></tspan></text></g></g></g><g transform="translate(794.3390502929688, 245.9334397315979)" id="flowchart-code_submission-3591" class="node default"><path transform="translate(-66.83125305175781, -36.07792997157446)" style="" class="basic label-container" d="M0,12.918620108206218 a66.83125305175781,12.918620108206218 0,0,0 133.66250610351562,0 a66.83125305175781,12.918620108206218 0,0,0 -133.66250610351562,0 l0,46.31861972673649 a66.83125305175781,12.918620108206218 0,0,0 133.66250610351562,0 l0,-46.31861972673649"></path><g transform="translate(-0.000003814697265625, 1.7881393432617188e-7)" style="" class="label"><rect></rect><g><rect style="stroke: none" class="background"></rect><text style="" y="-10.1"><tspan dy="1.1em" y="-0.1em" x="0" class="text-outer-tspan"><tspan font-weight="normal" class="text-inner-tspan" font-style="normal">Code</tspan><tspan font-weight="normal" class="text-inner-tspan" font-style="normal"> Submission</tspan></tspan></text></g></g></g><g transform="translate(1120.6328125, 245.9334397315979)" id="flowchart-evaluation_service-3593" class="node default"><rect height="48.39999961853027" width="191.50625610351562" y="-24.199999809265137" x="-95.75312805175781" style="" class="basic label-container"></rect><g transform="translate(0, -9.199999809265137)" style="" class="label"><rect></rect><g><rect style="stroke: none" class="background"></rect><text style="" y="-10.1"><tspan dy="1.1em" y="-0.1em" x="0" class="text-outer-tspan"><tspan font-weight="normal" class="text-inner-tspan" font-style="normal">Evaluation</tspan><tspan font-weight="normal" class="text-inner-tspan" font-style="normal"> Service</tspan></tspan></text></g></g></g><g transform="translate(1457.2984466552734, 267.13343954086304)" id="flowchart-submission_results-3595" class="node default"><path transform="translate(-74.01250457763672, -37.031242945185525)" style="" class="basic label-container" d="M0,13.554162090613593 a74.01250457763672,13.554162090613593 0,0,0 148.02500915527344,0 a74.01250457763672,13.554162090613593 0,0,0 -148.02500915527344,0 l0,46.95416170914387 a74.01250457763672,13.554162090613593 0,0,0 148.02500915527344,0 l0,-46.95416170914387"></path><g transform="translate(0, 1.7881393432617188e-7)" style="" class="label"><rect></rect><g><rect style="stroke: none" class="background"></rect><text style="" y="-10.1"><tspan dy="1.1em" y="-0.1em" x="0" class="text-outer-tspan"><tspan font-weight="normal" class="text-inner-tspan" font-style="normal">Submission</tspan><tspan font-weight="normal" class="text-inner-tspan" font-style="normal"> Results</tspan></tspan></text></g></g></g><g transform="translate(1457.2984466552734, 80.79723739624023)" id="flowchart-participant_rankings-3597" class="node default"><path transform="translate(-80.38750457763672, -37.7972359221924)" style="" class="basic label-container" d="M0,14.064824075284841 a80.38750457763672,14.064824075284841 0,0,0 160.77500915527344,0 a80.38750457763672,14.064824075284841 0,0,0 -160.77500915527344,0 l0,47.46482369381511 a80.38750457763672,14.064824075284841 0,0,0 160.77500915527344,0 l0,-47.46482369381511"></path><g transform="translate(0, 1.7881393432617188e-7)" style="" class="label"><rect></rect><g><rect style="stroke: none" class="background"></rect><text style="" y="-10.1"><tspan dy="1.1em" y="-0.1em" x="0" class="text-outer-tspan"><tspan font-weight="normal" class="text-inner-tspan" font-style="normal">Participant</tspan><tspan font-weight="normal" class="text-inner-tspan" font-style="normal"> Rankings</tspan></tspan></text></g></g></g><g transform="translate(1744.1984558105469, 80.79723739624023)" id="flowchart-total_score-3599" class="node default"><path transform="translate(-47.60234451293945, -32.91298716327595)" style="" class="basic label-container" d="M0,10.80865823600721 a47.60234451293945,10.80865823600721 0,0,0 95.2046890258789,0 a47.60234451293945,10.80865823600721 0,0,0 -95.2046890258789,0 l0,44.208657854537485 a47.60234451293945,10.80865823600721 0,0,0 95.2046890258789,0 l0,-44.208657854537485"></path><g transform="translate(0.3664054870605469, 1.7881393432617188e-7)" style="" class="label"><rect></rect><g><rect style="stroke: none" class="background"></rect><text style="" y="-10.1"><tspan dy="1.1em" y="-0.1em" x="0" class="text-outer-tspan"><tspan font-weight="normal" class="text-inner-tspan" font-style="normal">Total</tspan><tspan font-weight="normal" class="text-inner-tspan" font-style="normal"> Score</tspan></tspan></text></g></g></g><g transform="translate(1120.6328125, 410.1855101585388)" id="flowchart-submission_time-3605" class="node default"><path transform="translate(-66.42499923706055, -36.02082576335)" style="" class="basic label-container" d="M0,12.880550636056574 a66.42499923706055,12.880550636056574 0,0,0 132.8499984741211,0 a66.42499923706055,12.880550636056574 0,0,0 -132.8499984741211,0 l0,46.28055025458685 a66.42499923706055,12.880550636056574 0,0,0 132.8499984741211,0 l0,-46.28055025458685"></path><g transform="translate(-0.03125, 1.7881393432617188e-7)" style="" class="label"><rect></rect><g><rect style="stroke: none" class="background"></rect><text style="" y="-10.1"><tspan dy="1.1em" y="-0.1em" x="0" class="text-outer-tspan"><tspan font-weight="normal" class="text-inner-tspan" font-style="normal">Submission</tspan><tspan font-weight="normal" class="text-inner-tspan" font-style="normal"> Time</tspan></tspan></text></g></g></g><g transform="translate(1744.1984558105469, 267.13343954086304)" id="flowchart-pass_fail_status-3607" class="node default"><path transform="translate(-63.92500305175781, -35.661340972607015)" style="" class="basic label-container" d="M0,12.640894108894585 a63.92500305175781,12.640894108894585 0,0,0 127.85000610351562,0 a63.92500305175781,12.640894108894585 0,0,0 -127.85000610351562,0 l0,46.04089372742486 a63.92500305175781,12.640894108894585 0,0,0 127.85000610351562,0 l0,-46.04089372742486"></path><g transform="translate(-0.000003814697265625, 1.7881393432617188e-7)" style="" class="label"><rect></rect><g><rect style="stroke: none" class="background"></rect><text style="" y="-10.1"><tspan dy="1.1em" y="-0.1em" x="0" class="text-outer-tspan"><tspan font-weight="normal" class="text-inner-tspan" font-style="normal">Pass/Fail</tspan><tspan font-weight="normal" class="text-inner-tspan" font-style="normal"> Status</tspan></tspan></text></g></g></g></g></g></g></svg>